<svg width="64" height="84" viewBox="0 0 64 84" fill="none" xmlns="http://www.w3.org/2000/svg">
<path d="M42.6667 36.75V21C42.6667 15.225 37.8667 10.5 32 10.5C26.1333 10.5 21.3333 15.225 21.3333 21H10.6667C10.6667 9.3975 20.2133 0 32 0C43.7867 0 53.3333 9.3975 53.3333 21V36.75H58.6667C61.6 36.75 64 39.1125 64 42V78.75C64 81.6375 61.6 84 58.6667 84H5.33333C2.4 84 0 81.6375 0 78.75V42C0 39.1125 2.4 36.75 5.33333 36.75H42.6667ZM37.3333 73.5L35.4133 62.2125C38.1333 60.9525 40 58.275 40 55.125C40 50.7675 36.4267 47.25 32 47.25C27.5733 47.25 24 50.7675 24 55.125C24 58.275 25.8667 60.9525 28.5867 62.2125L26.6667 73.5H37.3333Z" fill="white"/>
</svg>
