<svg width="46" height="32" viewBox="0 0 46 32" fill="none" xmlns="http://www.w3.org/2000/svg">
<path d="M38.7291 13.9703C37.7303 6.10286 30.9943 0 22.8571 0C16.5577 0 11.0857 3.68 8.58743 9.48343C3.67771 10.9531 0 15.5886 0 20.5714C0 26.6446 4.77486 31.5771 10.7611 31.9337V32H36.5486V31.9931L36.5714 32C41.6137 32 45.7143 27.8994 45.7143 22.8571C45.7116 20.808 45.022 18.819 43.7557 17.208C42.4894 15.597 40.7196 14.457 38.7291 13.9703V13.9703ZM13.7143 16H20.5714V9.14286H25.1429V16H32L22.8571 27.4286L13.7143 16Z" fill="white"/>
</svg>
