<svg width="64" height="80" viewBox="0 0 64 80" fill="none" xmlns="http://www.w3.org/2000/svg">
<path d="M32 0C20.972 0 12 8.972 12 20V32H8C5.87827 32 3.84344 32.8429 2.34315 34.3431C0.842854 35.8434 0 37.8783 0 40V72C0 74.1217 0.842854 76.1566 2.34315 77.6569C3.84344 79.1571 5.87827 80 8 80H56C58.1217 80 60.1566 79.1571 61.6569 77.6569C63.1571 76.1566 64 74.1217 64 72V40C64 37.8783 63.1571 35.8434 61.6569 34.3431C60.1566 32.8429 58.1217 32 56 32H52V20C52 8.972 43.028 0 32 0ZM20 20C20 13.384 25.384 8 32 8C38.616 8 44 13.384 44 20V32H20V20ZM36 62.892V72H28V62.892C26.6015 62.0912 25.4786 60.8853 24.7793 59.4334C24.08 57.9815 23.8371 56.3518 24.0827 54.7591C24.3283 53.1664 25.0509 51.6855 26.1551 50.5117C27.2593 49.3379 28.6933 48.5264 30.268 48.184C31.4377 47.9254 32.6505 47.9326 33.817 48.2051C34.9835 48.4777 36.0739 49.0086 37.0079 49.7587C37.9419 50.5088 38.6956 51.459 39.2135 52.5392C39.7313 53.6194 40.0001 54.8021 40 56C39.9977 57.399 39.6268 58.7726 38.9245 59.9826C38.2223 61.1925 37.2136 62.196 36 62.892Z" fill="white"/>
</svg>
