<svg width="201" height="233" viewBox="0 0 201 233" fill="none" xmlns="http://www.w3.org/2000/svg">
<path d="M15.636 117.527C4.02015 117.527 2 117.527 2 127.187C2 153.286 2 207.924 2 217.685C2 230.396 2 230.061 15.636 230.396C70.8533 231.751 180.581 230.396 185.833 230.396C199.469 230.396 199.469 230.396 199.469 217.685C199.469 189.892 199.469 132.881 199.469 127.187C199.469 117.527 199.469 117.527 185.833 117.527M15.636 117.527V87.0988C15.636 40.1001 53.736 2.00011 100.735 2.00008V2.00008V2.00008C147.733 2.00008 185.833 40.1001 185.833 87.0987V117.527M15.636 117.527H31.46M185.833 117.527H169.83M31.46 117.527H62.0994C75.7354 117.527 62.0994 102.782 75.7354 102.782C80.5837 102.782 113.781 102.782 126.744 102.782C140.885 102.782 126.744 117.527 140.885 117.527H169.83M31.46 117.527V87.2725C31.46 49.0131 62.4753 17.9978 100.735 17.9978V17.9978V17.9978C138.895 17.9978 169.83 48.9328 169.83 87.0931V117.527" stroke="white" stroke-width="3"/>
<circle cx="101.112" cy="176.11" r="31.6122" stroke="white" stroke-width="3"/>
<circle cx="101.143" cy="176.141" r="40.6429" stroke="white" stroke-width="3"/>
<rect x="156.418" y="127.743" width="30.7143" height="11.449" rx="1.5" stroke="white" stroke-width="3"/>
</svg>
