<svg width="32" height="32" viewBox="0 0 32 32" fill="none" xmlns="http://www.w3.org/2000/svg">
<path d="M16 0C12.8355 0 9.74207 0.938383 7.11088 2.69649C4.4797 4.45459 2.42894 6.95345 1.21793 9.87706C0.0069325 12.8007 -0.309921 16.0177 0.307443 19.1214C0.924806 22.2251 2.44866 25.0761 4.6863 27.3137C6.92394 29.5513 9.77487 31.0752 12.8786 31.6926C15.9823 32.3099 19.1993 31.9931 22.1229 30.7821C25.0466 29.5711 27.5454 27.5203 29.3035 24.8891C31.0616 22.2579 32 19.1645 32 16C32 11.7565 30.3143 7.68687 27.3137 4.68629C24.3131 1.68571 20.2435 0 16 0V0ZM24 22.1C24.2652 22.3652 24.4142 22.7249 24.4142 23.1C24.4142 23.4751 24.2652 23.8348 24 24.1C23.7348 24.3652 23.3751 24.5142 23 24.5142C22.6249 24.5142 22.2652 24.3652 22 24.1L16 18.1L10 24.12C9.86869 24.2513 9.71278 24.3555 9.5412 24.4266C9.36962 24.4976 9.18572 24.5342 9.00001 24.5342C8.81429 24.5342 8.63039 24.4976 8.45881 24.4266C8.28723 24.3555 8.13133 24.2513 8.00001 24.12C7.86869 23.9887 7.76451 23.8328 7.69344 23.6612C7.62237 23.4896 7.58579 23.3057 7.58579 23.12C7.58579 22.9343 7.62237 22.7504 7.69344 22.5788C7.76451 22.4072 7.86869 22.2513 8.00001 22.12L14 16.08L7.83001 9.86C7.56479 9.59478 7.41579 9.23507 7.41579 8.86C7.41579 8.48493 7.56479 8.12522 7.83001 7.86C8.09522 7.59478 8.45493 7.44579 8.83001 7.44579C9.20508 7.44579 9.56479 7.59478 9.83001 7.86L16 14.1L22.17 7.93C22.3013 7.79868 22.4572 7.69451 22.6288 7.62344C22.8004 7.55237 22.9843 7.51579 23.17 7.51579C23.3557 7.51579 23.5396 7.55237 23.7112 7.62344C23.8828 7.69451 24.0387 7.79868 24.17 7.93C24.3013 8.06132 24.4055 8.21722 24.4766 8.3888C24.5476 8.56038 24.5842 8.74428 24.5842 8.93C24.5842 9.11572 24.5476 9.29962 24.4766 9.4712C24.4055 9.64278 24.3013 9.79868 24.17 9.93L18 16.08L24 22.1Z" fill="white"/>
</svg>
