<svg width="163" height="159" viewBox="0 0 163 159" fill="none" xmlns="http://www.w3.org/2000/svg">
<rect x="2" y="2" width="159.449" height="155" rx="8" stroke="white" stroke-opacity="0.9" stroke-width="3"/>
<path d="M23.0018 95.1343C24.0284 95.1343 25.013 95.5826 25.7389 96.3806C26.4649 97.1786 26.8727 98.261 26.8727 99.3895V120.666C26.8727 122.923 27.6883 125.088 29.1402 126.684C30.5921 128.28 32.5612 129.176 34.6145 129.176H127.516C129.57 129.176 131.539 128.28 132.991 126.684C134.443 125.088 135.258 122.923 135.258 120.666V99.3895C135.258 98.261 135.666 97.1786 136.392 96.3806C137.118 95.5826 138.102 95.1343 139.129 95.1343C140.156 95.1343 141.14 95.5826 141.866 96.3806C142.592 97.1786 143 98.261 143 99.3895V120.666C143 125.18 141.369 129.509 138.465 132.701C135.561 135.894 131.623 137.687 127.516 137.687H34.6145C30.508 137.687 26.5697 135.894 23.6659 132.701C20.7622 129.509 19.1309 125.18 19.1309 120.666V99.3895C19.1309 98.261 19.5387 97.1786 20.2646 96.3806C20.9906 95.5826 21.9751 95.1343 23.0018 95.1343Z" fill="white" fill-opacity="0.9"/>
<path d="M78.325 20.6333C78.6845 20.237 79.1117 19.9226 79.582 19.7081C80.0522 19.4936 80.5564 19.3832 81.0656 19.3832C81.5747 19.3832 82.0789 19.4936 82.5492 19.7081C83.0194 19.9226 83.4466 20.237 83.8062 20.6333L107.032 46.1649C107.758 46.9639 108.167 48.0476 108.167 49.1776C108.167 50.3076 107.758 51.3913 107.032 52.1903C106.305 52.9893 105.319 53.4382 104.291 53.4382C103.263 53.4382 102.277 52.9893 101.55 52.1903L84.9365 33.9182V108.751C84.9365 109.88 84.5287 110.962 83.8027 111.76C83.0768 112.558 82.0922 113.006 81.0656 113.006C80.0389 113.006 79.0544 112.558 78.3284 111.76C77.6025 110.962 77.1947 109.88 77.1947 108.751V33.9182L60.5807 52.1903C60.2208 52.5859 59.7935 52.8998 59.3233 53.1139C58.8531 53.328 58.3491 53.4382 57.8401 53.4382C57.3311 53.4382 56.8271 53.328 56.3569 53.1139C55.8867 52.8998 55.4594 52.5859 55.0995 52.1903C54.7396 51.7947 54.4541 51.325 54.2593 50.8081C54.0645 50.2911 53.9643 49.7371 53.9643 49.1776C53.9643 48.6181 54.0645 48.064 54.2593 47.5471C54.4541 47.0302 54.7396 46.5605 55.0995 46.1649L78.325 20.6333Z" fill="white" fill-opacity="0.9"/>
</svg>
